<svg width="64" height="64" viewBox="0 0 64 64" fill="none" xmlns="http://www.w3.org/2000/svg">
<g filter="url(#filter0_ddd_349_5)">
<rect x="4" y="4" width="56" height="56" rx="4" fill="white"/>
</g>
<path d="M32 18.125C21.5945 18.125 18.125 21.5945 18.125 32C18.125 42.4055 21.5945 45.875 32 45.875C42.4055 45.875 45.875 42.4055 45.875 32" stroke="#2699FB" stroke-width="2" stroke-linecap="round" stroke-linejoin="round"/>
<path fill-rule="evenodd" clip-rule="evenodd" d="M43.2921 20.4559C41.8026 19.1374 39.5271 19.2754 38.2086 20.7649C38.2086 20.7649 31.6551 28.1674 29.3826 30.7369C27.1071 33.3049 28.7751 36.8524 28.7751 36.8524C28.7751 36.8524 32.5311 38.0419 34.7721 35.5099C37.0146 32.9779 43.6011 25.5394 43.6011 25.5394C44.9196 24.0499 44.7801 21.7744 43.2921 20.4559Z" stroke="#2699FB" stroke-width="2" stroke-linecap="round" stroke-linejoin="round"/>
<path d="M36.5137 22.7012L41.9062 27.4757" stroke="#2699FB" stroke-width="2" stroke-linecap="round" stroke-linejoin="round"/>
<defs>
<filter id="filter0_ddd_349_5" x="0" y="0" width="64" height="64" filterUnits="userSpaceOnUse" color-interpolation-filters="sRGB">
<feFlood flood-opacity="0" result="BackgroundImageFix"/>
<feColorMatrix in="SourceAlpha" type="matrix" values="0 0 0 0 0 0 0 0 0 0 0 0 0 0 0 0 0 0 127 0" result="hardAlpha"/>
<feMorphology radius="4" operator="dilate" in="SourceAlpha" result="effect1_dropShadow_349_5"/>
<feOffset/>
<feColorMatrix type="matrix" values="0 0 0 0 0.94902 0 0 0 0 0.956863 0 0 0 0 0.968627 0 0 0 1 0"/>
<feBlend mode="normal" in2="BackgroundImageFix" result="effect1_dropShadow_349_5"/>
<feColorMatrix in="SourceAlpha" type="matrix" values="0 0 0 0 0 0 0 0 0 0 0 0 0 0 0 0 0 0 127 0" result="hardAlpha"/>
<feOffset dy="1"/>
<feGaussianBlur stdDeviation="1"/>
<feColorMatrix type="matrix" values="0 0 0 0 0.0627451 0 0 0 0 0.0941176 0 0 0 0 0.156863 0 0 0 0.06 0"/>
<feBlend mode="normal" in2="effect1_dropShadow_349_5" result="effect2_dropShadow_349_5"/>
<feColorMatrix in="SourceAlpha" type="matrix" values="0 0 0 0 0 0 0 0 0 0 0 0 0 0 0 0 0 0 127 0" result="hardAlpha"/>
<feOffset dy="1"/>
<feGaussianBlur stdDeviation="1.5"/>
<feColorMatrix type="matrix" values="0 0 0 0 0.0627451 0 0 0 0 0.0941176 0 0 0 0 0.156863 0 0 0 0.1 0"/>
<feBlend mode="normal" in2="effect2_dropShadow_349_5" result="effect3_dropShadow_349_5"/>
<feBlend mode="normal" in="SourceGraphic" in2="effect3_dropShadow_349_5" result="shape"/>
</filter>
</defs>
</svg>
